<svg width="711" height="512" viewBox="0 0 711 512" fill="none" xmlns="http://www.w3.org/2000/svg">
<path d="M303.549 28.9904C303.549 19.2814 311.397 11.4333 321.106 11.4333C330.815 11.4333 338.663 19.2814 338.663 28.9904C338.663 38.6994 330.774 46.5474 321.106 46.5474C311.397 46.5474 303.549 38.6589 303.549 28.9904Z" fill="#E6E9EA"/>
<path d="M303.549 28.9903C303.549 23.7718 305.855 19.0386 309.455 15.8428C307.918 18.4318 307.028 21.5063 307.028 24.7427C307.028 34.4516 314.876 42.2997 324.585 42.2997C329.035 42.2997 333.121 40.6411 336.195 37.8902C333.161 43.0683 327.498 46.5474 321.066 46.5474C311.397 46.5474 303.549 38.6588 303.549 28.9903Z" fill="#C7D5D8"/>
<path d="M428.228 194.852C423.616 193.679 418.762 193.072 413.827 193.072C400.962 193.072 388.3 197.481 378.065 205.208C372.928 209.092 368.437 213.784 364.796 219.084C361.075 224.505 359.173 230.33 356.503 236.236C349.667 251.366 333.647 261.196 317.182 261.196C309.698 261.196 303.873 257.839 296.712 256.099C296.55 256.059 296.348 256.018 296.146 255.978C292.99 255.25 289.714 254.886 286.356 254.886C262.326 254.886 242.868 274.344 242.868 298.374C242.868 313.746 250.837 327.258 262.852 334.984C262.852 334.984 262.893 334.984 262.893 335.025C263.054 335.146 263.257 335.227 263.419 335.349C263.823 335.632 264.228 335.874 264.673 336.117C264.673 336.117 264.713 336.117 264.713 336.158C265.118 336.4 265.522 336.603 265.927 336.805C271.995 340.041 278.953 341.862 286.316 341.862C299.584 341.862 311.963 335.51 320.256 325.235C321.389 323.86 322.401 322.403 323.371 320.947C323.695 320.502 323.978 320.016 324.302 319.531C326.608 316.052 328.833 312.573 331.948 309.579C336.883 304.887 342.87 301.408 349.383 299.466C353.429 298.252 357.676 297.645 361.884 297.645C368.963 297.645 375.638 299.344 381.544 302.338C392.103 307.678 401.65 311.845 413.786 311.845C446.554 311.845 473.092 285.307 473.092 252.539C473.132 224.626 454.038 201.284 428.228 194.852ZM285.506 281.666C295.458 281.666 303.549 289.757 303.549 299.709C303.549 309.66 295.458 317.751 285.506 317.751C275.555 317.751 267.464 309.66 267.464 299.709C267.464 289.757 275.555 281.666 285.506 281.666ZM415.93 278.834C401.65 278.834 390.08 267.264 390.08 252.984C390.08 238.704 401.65 227.134 415.93 227.134C430.21 227.134 441.78 238.704 441.78 252.984C441.821 267.224 430.21 278.834 415.93 278.834Z" fill="url(#paint0_linear_96_94)"/>
<path d="M441.861 255.857C441.861 270.177 430.251 281.788 415.93 281.788C401.609 281.788 389.999 270.177 389.999 255.857C389.999 255.29 389.999 254.724 390.04 254.157C390.93 267.669 402.176 278.389 415.93 278.389C429.685 278.389 440.931 267.71 441.821 254.157C441.861 254.724 441.861 255.29 441.861 255.857Z" fill="url(#paint1_linear_96_94)"/>
<path d="M413.827 193.112C400.962 193.112 388.3 197.522 378.065 205.249C372.928 209.132 368.437 213.825 364.796 219.124C361.075 224.545 359.173 230.37 356.503 236.277C349.667 251.407 333.647 261.237 317.182 261.237C309.698 261.237 303.873 257.879 296.712 256.14C296.55 256.099 296.348 256.059 296.146 256.018C292.99 255.29 289.714 254.926 286.356 254.926C262.326 254.926 242.868 274.384 242.868 298.414C242.868 313.787 250.837 327.298 262.852 335.025C262.852 335.025 262.893 335.025 262.893 335.065C263.054 335.187 263.257 335.268 263.419 335.389C263.823 335.672 264.228 335.915 264.673 336.158C264.673 336.158 264.713 336.158 264.713 336.198C265.118 336.441 265.522 336.643 265.927 336.845C266.857 337.331 267.828 337.776 268.799 338.14C281.744 343.197 296.227 338.423 306.623 330.09C308.444 328.633 310.102 327.015 311.64 325.276C316.656 319.652 320.014 312.897 324.302 306.748C329.116 299.79 333.809 292.71 338.258 285.509C347.199 271.108 355.33 256.18 362.126 240.605C364.958 234.092 366.94 227.175 370.905 221.187C378.227 210.103 389.028 201.648 401.731 197.684C407.758 195.782 414.069 194.811 420.38 194.65C420.825 194.65 427.864 195.054 428.188 194.973C423.616 193.719 418.802 193.112 413.827 193.112ZM285.506 317.751C275.555 317.751 267.464 309.66 267.464 299.709C267.464 289.757 275.555 281.666 285.506 281.666C295.458 281.666 303.549 289.757 303.549 299.709C303.549 309.66 295.458 317.751 285.506 317.751Z" fill="url(#paint2_linear_96_94)"/>
<path d="M305.263 299.161C305.263 309.881 296.404 318.608 285.506 318.608C274.609 318.608 265.75 309.926 265.75 299.161C265.75 298.718 265.75 298.32 265.794 297.877C266.459 308.021 275.008 315.994 285.506 315.994C295.961 315.994 304.554 307.976 305.219 297.877C305.263 298.32 305.263 298.763 305.263 299.161Z" fill="url(#paint3_linear_96_94)"/>
<path d="M428.228 194.569C426.367 194.124 424.466 193.719 422.565 193.436C420.461 194.002 418.236 194.285 415.93 194.285C413.179 194.285 410.55 193.881 408.082 193.072C397.241 194.164 386.763 198.331 378.065 204.925C374.708 207.473 371.593 210.346 368.842 213.541C373.373 214.27 377.62 215.686 381.585 217.668C391.456 222.684 400.477 226.649 411.561 227.134C412.289 227.175 413.058 227.175 413.786 227.175C415.526 227.175 417.265 227.094 419.005 226.932C433.245 225.718 446.028 219.448 455.575 209.941C448.172 202.619 438.746 197.198 428.228 194.569Z" fill="url(#paint4_linear_96_94)"/>
<path d="M455.616 113.741C448.172 106.338 438.746 100.918 428.269 98.288C426.408 97.843 424.507 97.4385 422.605 97.1553C419.773 96.7103 416.82 96.5081 413.867 96.5081C411.966 96.5081 410.024 96.589 408.123 96.7912C397.281 97.8835 386.803 102.05 378.106 108.644C374.748 111.193 371.633 114.065 368.882 117.261C367.426 118.92 366.091 120.659 364.837 122.48C361.115 127.9 359.214 133.726 356.544 139.632C349.707 154.762 333.687 164.592 317.222 164.592C309.819 164.592 304.075 161.315 297.076 159.576C296.955 159.535 296.874 159.535 296.753 159.495C296.591 159.455 296.389 159.414 296.186 159.374C293.031 158.645 289.754 158.281 286.397 158.281C282.634 158.281 278.993 158.767 275.555 159.657C256.784 164.471 242.908 181.502 242.908 201.769C242.908 217.142 250.878 230.654 262.893 238.38C262.893 238.38 262.933 238.38 262.933 238.421C263.095 238.542 263.297 238.623 263.459 238.744C263.864 239.028 264.268 239.27 264.713 239.513C264.713 239.513 264.754 239.513 264.754 239.553C265.158 239.796 265.563 239.998 265.967 240.201C272.035 243.437 278.993 245.257 286.356 245.257C299.625 245.257 312.004 238.906 320.297 228.631C321.43 227.255 322.441 225.799 323.412 224.343C323.736 223.898 324.019 223.412 324.342 222.927C326.648 219.448 328.873 215.969 331.988 212.975C336.924 208.283 342.911 204.803 349.424 202.862C353.469 201.648 357.717 201.041 361.924 201.041C369.004 201.041 375.679 202.74 381.585 205.734C392.143 211.074 401.69 215.241 413.827 215.241C446.594 215.241 473.132 188.703 473.132 155.935C473.132 139.389 466.457 124.502 455.616 113.741ZM285.507 221.187C275.555 221.187 267.464 213.097 267.464 203.145C267.464 193.193 275.555 185.102 285.507 185.102C295.458 185.102 303.549 193.193 303.549 203.145C303.549 213.097 295.458 221.187 285.507 221.187ZM415.93 182.271C401.65 182.271 390.08 170.701 390.08 156.42C390.08 143.597 399.385 132.998 411.602 130.934C413.018 130.692 414.474 130.57 415.93 130.57C416.982 130.57 418.034 130.611 419.045 130.773C431.869 132.31 441.821 143.192 441.821 156.461C441.821 170.66 430.211 182.271 415.93 182.271Z" fill="url(#paint5_linear_96_94)"/>
<path d="M441.861 159.293C441.861 173.614 430.251 185.224 415.93 185.224C401.609 185.224 389.999 173.614 389.999 159.293C389.999 158.726 389.999 158.16 390.04 157.594C390.93 171.105 402.176 181.826 415.93 181.826C429.685 181.826 440.931 171.146 441.821 157.594C441.861 158.16 441.861 158.726 441.861 159.293Z" fill="url(#paint6_linear_96_94)"/>
<path d="M413.827 96.5486C400.962 96.5486 388.3 100.958 378.065 108.685C372.928 112.568 368.437 117.261 364.796 122.561C361.075 127.981 359.173 133.807 356.503 139.713C349.667 154.843 333.647 164.673 317.182 164.673C309.698 164.673 303.873 161.315 296.712 159.576C296.55 159.535 296.348 159.495 296.146 159.455C292.99 158.726 289.714 158.362 286.356 158.362C262.326 158.362 242.868 177.821 242.868 201.85C242.868 217.223 250.837 230.735 262.852 238.461C262.852 238.461 262.893 238.461 262.893 238.502C263.054 238.623 263.257 238.704 263.419 238.825C263.823 239.109 264.228 239.351 264.673 239.594C264.673 239.594 264.713 239.594 264.713 239.634C265.118 239.877 265.522 240.079 265.927 240.282C266.857 240.767 267.828 241.212 268.799 241.576C281.744 246.633 296.227 241.859 306.623 233.526C308.444 232.07 310.102 230.451 311.64 228.712C316.656 223.089 320.014 216.333 324.302 210.184C329.116 203.226 333.809 196.146 338.258 188.946C347.199 174.544 355.33 159.616 362.126 144.042C364.958 137.528 366.94 130.611 370.905 124.624C378.227 113.539 389.028 105.084 401.731 101.12C407.758 99.2185 414.069 98.2476 420.38 98.0858C420.825 98.0858 427.864 98.4904 428.188 98.4095C423.616 97.1554 418.802 96.5486 413.827 96.5486ZM285.506 221.187C275.555 221.187 267.464 213.097 267.464 203.145C267.464 193.193 275.555 185.102 285.506 185.102C295.458 185.102 303.549 193.193 303.549 203.145C303.549 213.097 295.458 221.187 285.506 221.187Z" fill="url(#paint7_linear_96_94)"/>
<path d="M303.549 204.965C303.549 214.755 295.458 222.725 285.506 222.725C275.555 222.725 267.464 214.796 267.464 204.965C267.464 204.561 267.464 204.197 267.504 203.792C268.111 213.056 275.919 220.338 285.506 220.338C295.054 220.338 302.902 213.016 303.509 203.792C303.549 204.156 303.549 204.561 303.549 204.965Z" fill="url(#paint8_linear_96_94)"/>
<path d="M428.228 98.2881C426.367 97.8431 424.466 97.4385 422.565 97.1553C420.461 97.7217 418.236 98.0049 415.93 98.0049C413.179 98.0049 410.55 97.6003 408.082 96.7913C397.241 97.8835 386.763 102.05 378.065 108.644C374.708 111.193 371.593 114.065 368.842 117.261C373.373 117.989 377.62 119.405 381.585 121.387C391.456 126.404 400.477 130.368 411.561 130.854C412.289 130.894 413.058 130.894 413.786 130.894C415.526 130.894 417.265 130.813 419.005 130.651C433.245 129.438 446.028 123.167 455.575 113.661C448.172 106.338 438.746 100.918 428.228 98.2881Z" fill="url(#paint9_linear_96_94)"/>
<path d="M428.228 2.69526C423.616 1.5221 418.762 0.915283 413.827 0.915283C400.962 0.915283 388.3 5.32477 378.065 13.0515C372.928 16.9351 368.437 21.6277 364.796 26.9272C361.075 32.3481 359.173 38.1734 356.503 44.0797C349.667 59.2095 333.647 69.0398 317.182 69.0398C309.698 69.0398 303.873 65.6822 296.712 63.9426C296.55 63.9022 296.348 63.8617 296.146 63.8213C292.99 63.0931 289.714 62.729 286.356 62.729C262.326 62.729 242.868 82.1874 242.868 106.217C242.868 121.59 250.837 135.101 262.852 142.828C262.852 142.828 262.893 142.828 262.893 142.868C263.054 142.99 263.257 143.071 263.419 143.192C263.823 143.475 264.228 143.718 264.673 143.961C264.673 143.961 264.713 143.961 264.713 144.001C265.118 144.244 265.522 144.446 265.927 144.648C271.995 147.885 278.953 149.705 286.316 149.705C299.584 149.705 311.963 143.354 320.256 133.079C321.389 131.703 322.401 130.247 323.371 128.79C323.695 128.345 323.978 127.86 324.302 127.375C326.608 123.895 328.833 120.416 331.948 117.423C336.883 112.73 342.87 109.251 349.383 107.309C353.429 106.096 357.676 105.489 361.884 105.489C368.963 105.489 375.638 107.188 381.544 110.182C392.103 115.521 401.65 119.688 413.786 119.688C446.554 119.688 473.092 93.1504 473.092 60.3827C473.132 32.4694 454.038 9.12745 428.228 2.69526ZM285.506 89.5096C295.458 89.5096 303.549 97.6004 303.549 107.552C303.549 117.504 295.458 125.595 285.506 125.595C275.555 125.595 267.464 117.504 267.464 107.552C267.464 97.5599 275.555 89.5096 285.506 89.5096ZM415.93 86.6373C401.65 86.6373 390.08 75.0675 390.08 60.7872C390.08 46.507 401.65 34.9371 415.93 34.9371C430.21 34.9371 441.78 46.507 441.78 60.7872C441.821 75.0675 430.21 86.6373 415.93 86.6373Z" fill="url(#paint10_linear_96_94)"/>
<path d="M441.861 63.7C441.861 78.0208 430.251 89.6311 415.93 89.6311C401.609 89.6311 389.999 78.0208 389.999 63.7C389.999 63.1337 389.999 62.5673 390.04 62.001C390.93 75.5126 402.176 86.2329 415.93 86.2329C429.685 86.2329 440.931 75.5531 441.821 62.001C441.861 62.5673 441.861 63.1337 441.861 63.7Z" fill="url(#paint11_linear_96_94)"/>
<path d="M413.827 0.915283C400.962 0.915283 388.3 5.32477 378.065 13.0515C372.928 16.9351 368.437 21.6277 364.796 26.9272C361.075 32.3481 359.173 38.1734 356.503 44.0797C349.667 59.2095 333.647 69.0398 317.182 69.0398C309.698 69.0398 303.873 65.6822 296.712 63.9426C296.55 63.9022 296.348 63.8617 296.146 63.8213C292.99 63.0931 289.714 62.729 286.356 62.729C262.326 62.729 242.868 82.1874 242.868 106.217C242.868 121.59 250.837 135.101 262.852 142.828C262.852 142.828 262.893 142.828 262.893 142.868C263.054 142.99 263.257 143.071 263.419 143.192C263.823 143.475 264.228 143.718 264.673 143.961C264.673 143.961 264.713 143.961 264.713 144.001C265.118 144.244 265.522 144.446 265.927 144.648C266.857 145.134 267.828 145.579 268.799 145.943C281.744 151 296.227 146.226 306.623 137.893C308.444 136.436 310.102 134.818 311.64 133.079C316.656 127.455 320.014 120.7 324.302 114.551C329.116 107.593 333.809 100.513 338.258 93.3123C347.199 78.9106 355.33 63.9831 362.126 48.4083C364.958 41.8952 366.94 34.9776 370.905 28.9904C378.227 17.906 389.028 9.45108 401.731 5.48659C407.758 3.58525 414.069 2.61435 420.38 2.45254C420.825 2.45254 427.864 2.85708 428.188 2.77617C423.616 1.5221 418.802 0.915283 413.827 0.915283ZM285.506 125.554C275.555 125.554 267.464 117.463 267.464 107.512C267.464 97.5599 275.555 89.4691 285.506 89.4691C295.458 89.4691 303.549 97.5599 303.549 107.512C303.549 117.504 295.458 125.554 285.506 125.554Z" fill="url(#paint12_linear_96_94)"/>
<path d="M303.549 109.332C303.549 119.122 295.458 127.091 285.506 127.091C275.555 127.091 267.464 119.162 267.464 109.332C267.464 108.928 267.464 108.563 267.504 108.159C268.111 117.423 275.919 124.705 285.506 124.705C295.054 124.705 302.902 117.382 303.509 108.159C303.549 108.563 303.549 108.928 303.549 109.332Z" fill="url(#paint13_linear_96_94)"/>
<path d="M60.1575 510.19L45.5567 441.105L29.8609 440.548C19.8325 440.222 16.9315 443.334 14.4725 453.593L0.332764 510.19H15.3754L18.8143 494.821H41.0996L44.1159 510.19H60.1575ZM27.6324 456.475C27.8437 455.36 28.0742 454.919 29.1885 454.919H33.2998L38.4292 480.989H21.9457L27.6324 456.475ZM84.902 510.19V441.105H68.7451V510.19H84.902ZM164.13 510.19V496.147H137.945V482.103H161.441V468.29H137.945V455.149H163.573V441.105H121.788V510.19H164.13ZM215.271 510.19H226.625V441.105H212.812V482.564L184.629 441.105H173.371V510.19H187.184V468.732L215.271 510.19ZM268.411 511.304C281.455 511.304 288.026 505.406 288.026 493.918V471.191H265.183V484.677H272.772V495.263C272.772 496.377 272.311 496.819 271.312 496.819H256.384C255.385 496.819 254.828 496.377 254.828 495.263V456.033C254.828 454.919 255.385 454.477 256.384 454.477H286.585V439.991H258.056C245.011 439.991 238.556 445.889 238.556 457.378V493.918C238.556 505.406 245.011 511.304 258.056 511.304H268.411ZM317.112 510.19V441.105H300.955V510.19H317.112ZM373.152 510.19H384.525V441.105H370.712V482.564L342.509 441.105H331.271V510.19H345.084V468.732L373.152 510.19ZM439.797 510.19V496.147H413.611V482.103H437.126V468.29H413.611V455.149H439.24V441.105H397.454V510.19H439.797ZM492.379 510.19V496.147H466.193V482.103H489.708V468.29H466.193V455.149H491.822V441.105H450.036V510.19H492.379ZM519.352 510.19V485.446H530.168C531.493 485.446 531.493 486.003 531.935 487.232L539.524 510.19H555.565L548.88 491.017C547.439 487.117 545.652 484.793 543.078 483.217C549.552 480.105 552.78 473.861 552.78 466.849V458.492C552.78 447.003 545.652 440.318 532.608 440.548L503.195 441.105V510.19H519.352ZM534.951 454.592C535.95 454.592 536.392 455.034 536.392 456.148V470.076C536.392 471.191 535.95 471.517 534.951 471.517H519.352V454.592H534.951ZM581.981 510.19V441.105H565.824V510.19H581.981ZM638.021 510.19H649.395V441.105H635.562V482.564L607.379 441.105H596.121V510.19H609.934V468.732L638.021 510.19ZM691.18 511.304C704.205 511.304 710.775 505.406 710.775 493.918V471.191H687.933V484.677H695.521V495.263C695.521 496.377 695.08 496.819 694.061 496.819H679.134C678.135 496.819 677.578 496.377 677.578 495.263V456.033C677.578 454.919 678.135 454.477 679.134 454.477H709.335V439.991H680.805C667.78 439.991 661.306 445.889 661.306 457.378V493.918C661.306 505.406 667.78 511.304 680.805 511.304H691.18Z" fill="#E6E9EA"/>
<path d="M139.386 418.803V389.486L160.768 418.803H165.456V381.245H160.768V410.561L139.386 381.245H134.698V418.803H139.386ZM224.301 418.803L210.526 381.245H205.819L192.045 418.803H196.982L200.421 409.159H215.867L219.306 418.803H224.301ZM208.163 387.642L214.368 405.009H201.919L208.163 387.642ZM264.972 419.495C273.559 419.495 279.592 416.363 279.592 407.66C279.592 401.378 274.462 398.381 268.852 397.478L260.976 396.23C256.73 395.576 254.425 393.924 254.425 391.523C254.425 386.336 259.477 384.837 264.415 384.837C270.409 384.837 273.348 388.276 274.212 391.081H279.092C278.9 386.393 274.712 380.246 263.857 380.246C255.231 380.246 249.583 384.645 249.583 391.523C249.583 397.421 254.521 400.264 259.612 401.071L267.508 402.32C272.099 403.069 274.712 404.414 274.712 407.968C274.712 412.617 271.849 414.807 264.511 414.807C257.325 414.807 254.617 411.464 253.983 407.814H249.122C249.122 413.616 253.483 419.495 264.972 419.495ZM312.866 418.803V401.763H332.75V418.803H337.438V381.245H332.75V397.267H312.866V381.245H308.178V418.803H312.866ZM384.602 418.803L398.184 381.245H393.036L381.49 412.617L370.001 381.245H364.756L378.454 418.803H384.602ZM430.191 418.803V381.245H425.196V418.803H430.191ZM483.099 418.803V414.308H465.06V381.245H460.372V418.803H483.099ZM531.148 418.803V414.308H513.108V381.245H508.42V418.803H531.148ZM561.175 401.82H579.849V397.325H561.175V385.779H581.001V381.245H556.468V418.803H581.155V414.308H561.175V401.82Z" fill="#CBE448"/>
<defs>
<linearGradient id="paint0_linear_96_94" x1="242.852" y1="267.44" x2="473.147" y2="267.44" gradientUnits="userSpaceOnUse">
<stop offset="3.40978e-07" stop-color="#597C19"/>
<stop offset="1" stop-color="#AED50A"/>
</linearGradient>
<linearGradient id="paint1_linear_96_94" x1="493.355" y1="236.744" x2="212.314" y2="336.383" gradientUnits="userSpaceOnUse">
<stop offset="3.40978e-07" stop-color="#597C19"/>
<stop offset="1" stop-color="#AED50A"/>
</linearGradient>
<linearGradient id="paint2_linear_96_94" x1="242.852" y1="266.596" x2="428.236" y2="266.596" gradientUnits="userSpaceOnUse">
<stop stop-color="#EAF381"/>
<stop offset="1" stop-color="#AFD615"/>
</linearGradient>
<linearGradient id="paint3_linear_96_94" x1="322.4" y1="292.304" x2="281.646" y2="306.745" gradientUnits="userSpaceOnUse">
<stop stop-color="#EAF381"/>
<stop offset="1" stop-color="#AFD615"/>
</linearGradient>
<linearGradient id="paint4_linear_96_94" x1="370.162" y1="210.154" x2="480.39" y2="210.154" gradientUnits="userSpaceOnUse">
<stop offset="3.40978e-07" stop-color="#597C19"/>
<stop offset="1" stop-color="#AED50A"/>
</linearGradient>
<linearGradient id="paint5_linear_96_94" x1="242.852" y1="170.875" x2="473.147" y2="170.875" gradientUnits="userSpaceOnUse">
<stop offset="3.40978e-07" stop-color="#597C19"/>
<stop offset="1" stop-color="#AED50A"/>
</linearGradient>
<linearGradient id="paint6_linear_96_94" x1="493.355" y1="140.182" x2="212.314" y2="239.821" gradientUnits="userSpaceOnUse">
<stop offset="3.40978e-07" stop-color="#597C19"/>
<stop offset="1" stop-color="#AED50A"/>
</linearGradient>
<linearGradient id="paint7_linear_96_94" x1="242.852" y1="170.034" x2="428.236" y2="170.034" gradientUnits="userSpaceOnUse">
<stop stop-color="#EAF381"/>
<stop offset="1" stop-color="#AFD615"/>
</linearGradient>
<linearGradient id="paint8_linear_96_94" x1="319.199" y1="198.665" x2="281.981" y2="211.852" gradientUnits="userSpaceOnUse">
<stop stop-color="#EAF381"/>
<stop offset="1" stop-color="#AFD615"/>
</linearGradient>
<linearGradient id="paint9_linear_96_94" x1="370.162" y1="113.882" x2="480.39" y2="113.882" gradientUnits="userSpaceOnUse">
<stop offset="3.40978e-07" stop-color="#597C19"/>
<stop offset="1" stop-color="#AED50A"/>
</linearGradient>
<linearGradient id="paint10_linear_96_94" x1="242.852" y1="75.2685" x2="473.147" y2="75.2685" gradientUnits="userSpaceOnUse">
<stop offset="3.40978e-07" stop-color="#597C19"/>
<stop offset="1" stop-color="#AED50A"/>
</linearGradient>
<linearGradient id="paint11_linear_96_94" x1="493.355" y1="44.5732" x2="212.314" y2="144.212" gradientUnits="userSpaceOnUse">
<stop offset="3.40978e-07" stop-color="#597C19"/>
<stop offset="1" stop-color="#AED50A"/>
</linearGradient>
<linearGradient id="paint12_linear_96_94" x1="242.852" y1="74.4243" x2="428.236" y2="74.4243" gradientUnits="userSpaceOnUse">
<stop stop-color="#EAF381"/>
<stop offset="1" stop-color="#AFD615"/>
</linearGradient>
<linearGradient id="paint13_linear_96_94" x1="319.199" y1="103.055" x2="281.981" y2="116.243" gradientUnits="userSpaceOnUse">
<stop stop-color="#EAF381"/>
<stop offset="1" stop-color="#AFD615"/>
</linearGradient>
</defs>
</svg>
